inDegrees=no
num_controls=7
num_derivatives=13
num_iterations=127
num_multipliers=7
num_parameters=0
num_slacks=7
num_states=26
objective=5.692073
objective_accelerations=0.848230
objective_balance=0.115416
objective_effort=0.468803
objective_height=4.217916
objective_ligament=0.041708
solver_duration=2349.673000
status=Solve_Succeeded
success=true
DataType=double
version=3
OpenSimVersion=4.4-2022-07-23-0e9fedc
endheader
time	/jointset/ground_pelvis/pelvis_tilt/value	/jointset/ground_pelvis/pelvis_tx/value	/jointset/ground_pelvis/pelvis_ty/value	/jointset/hip_l/hip_flexion_l/value	/jointset/hip_l/hip_adduction_l/value	/jointset/hip_l/hip_rotation_l/value	/jointset/back/lumbar_extension/value	/jointset/patellofemoral_l/patellar_flexion_l/value	/jointset/knee_l/knee_flexion_l/value	/jointset/knee_l/knee_adduction_l/value	/jointset/knee_l/knee_rotation_l/value	/jointset/ankle_l/ankle_angle_l/value	/jointset/subtalar_l/subtalar_angle_l/value	/jointset/ground_pelvis/pelvis_tilt/speed	/jointset/ground_pelvis/pelvis_tx/speed	/jointset/ground_pelvis/pelvis_ty/speed	/jointset/hip_l/hip_flexion_l/speed	/jointset/hip_l/hip_adduction_l/speed	/jointset/hip_l/hip_rotation_l/speed	/jointset/back/lumbar_extension/speed	/jointset/patellofemoral_l/patellar_flexion_l/speed	/jointset/knee_l/knee_flexion_l/speed	/jointset/knee_l/knee_adduction_l/speed	/jointset/knee_l/knee_rotation_l/speed	/jointset/ankle_l/ankle_angle_l/speed	/jointset/subtalar_l/subtalar_angle_l/speed	/forceset/tau_hip_flexion_l	/forceset/tau_hip_adduction_l	/forceset/tau_hip_rotation_l	/forceset/tau_knee_flexion_l	/forceset/tau_ankle_angle_l	/forceset/tau_subtalar_angle_l	/forceset/tau_lumbar_extension	lambda_cid13_p0	lambda_cid13_p1	lambda_cid13_p2	lambda_cid13_p3	lambda_cid13_p4	lambda_cid13_p5	lambda_cid14_p0	/jointset/ground_pelvis/pelvis_tilt/accel	/jointset/ground_pelvis/pelvis_tx/accel	/jointset/ground_pelvis/pelvis_ty/accel	/jointset/hip_l/hip_flexion_l/accel	/jointset/hip_l/hip_adduction_l/accel	/jointset/hip_l/hip_rotation_l/accel	/jointset/back/lumbar_extension/accel	/jointset/patellofemoral_l/patellar_flexion_l/accel	/jointset/knee_l/knee_flexion_l/accel	/jointset/knee_l/knee_adduction_l/accel	/jointset/knee_l/knee_rotation_l/accel	/jointset/ankle_l/ankle_angle_l/accel	/jointset/subtalar_l/subtalar_angle_l/accel	gamma_cid13_p0	gamma_cid13_p1	gamma_cid13_p2	gamma_cid13_p3	gamma_cid13_p4	gamma_cid13_p5	gamma_cid14_p0
1	-0.424231790625735	-0.02131919054550771	0.45914492956249	2.094395102393195	-0.2398975839277024	0.07762892294349759	-0.4363321725779538	1.85896656418827	1.858966564188254	0.1319302785299876	0.1745257454913292	0.4363322984703535	0.1411651418562516	-0.01127168788112934	0.0001055656328505199	-0.003848598534794196	0.01950188722359688	0.0005874148470906642	0.004260881965440413	-2.836965029115283e-05	0.006649510451311783	0.006649510451311783	-0.001923089164618049	4.165201833213687e-06	-0.001374976021530305	0.000229149299951474	-0.3237940297868356	0.0131485280328287	-0.04402757601043714	-0.4479836247463072	-0.004073192371272338	0.01683989386045893	0.2917668226135576	-50.01172708514706	9.590563299174306	-11.23775108414464	26.59590753536335	-756.3688402967689	-47.73740910086848	-0.03394614190522505	-0.2104408874498172	-0.5053295809335372	2.369927725141684	-6.148276244849376	-0.08127795474115845	-0.8845867771719691	0.009631473525824113	-6.927280578559175	-6.927280578559254	-1.16862248549161	0.009140789006046732	-0.8951550803171473	-0.4816840248551583	-1.770999065762594e-09	4.593286138978279e-09	8.875364438891301e-09	4.968276897610869e-09	1.300000698670647e-09	1.742807696246594e-08	-8.330696185873346e-10
1.01	-0.4243544469789757	-0.02134337486974362	0.4592251724727458	2.094281464793154	-0.2398952865965415	0.07763083221328471	-0.4363321155160265	1.8586863798812	1.85868637988121	0.1318495234577573	0.1745257433766302	0.4362741449118548	0.1411442593111122	-0.01320954165914414	-0.00494036170105715	0.01991928710979946	-0.04232617575201249	-0.0001299367328548084	-0.003886363840562082	3.469058211591806e-05	-0.06273292726748947	-0.06273292726749125	-0.01423442124359191	-5.575147232828685e-06	-0.01025850085001604	-0.004408984159623005	-0.3248405197788166	0.0132617294031273	-0.04396634417666352	-0.4478382763843052	-0.00487728265582642	0.01686562871813235	0.2925788801354501	-50.31911158252526	9.625562437379111	-11.23459858266802	26.84304533458183	-757.1068951879059	-47.72129777671261	-0.03394993035167873	-0.1779487389097929	-0.5039123329049683	2.383532387982807	-6.214462704798539	-0.06725209414650636	-0.7808893520870832	0.003879584792133694	-6.950711829833056	-6.950711829833251	-1.263354746456032	-0.0061562228079692	-0.8853676971454317	-0.4553585721474522	4.692768194903242e-09	-6.030608091977435e-08	-7.215930515149781e-08	8.265922928534018e-09	-1.273180526065633e-08	-2.180230901808006e-07	1.55892068024351e-08
1.02	-0.424494980093185	-0.02141795607197558	0.45954375692022	2.093546664236916	-0.2399002204480819	0.07755104985106706	-0.4363315805948466	1.857710973904683	1.857710973904705	0.1316454618293413	0.1745256189032506	0.4361270728024543	0.141076899318248	-0.01484704007446342	-0.00997380996635862	0.04381970890893902	-0.1047298939628973	-0.0008588216938043681	-0.01207744443747233	6.720228226421479e-05	-0.1323948234379914	-0.1323948234379949	-0.02658440041680642	-2.030653410273121e-05	-0.01915868619974741	-0.009066340244749119	-0.3258870097707293	0.01337493077342056	-0.04390511234275016	-0.4476929280223096	-0.005681372940398166	0.01689136357578685	0.2933909376574129	-50.62899500523803	9.657012273589212	-11.2263260480616	27.14581746603537	-757.8610583359147	-47.71184837033859	-0.03399185999976918	-0.1503698149107354	-0.5028337672122895	2.396434956050864	-6.263407291904453	-0.08358463094197706	-0.8933537353535056	0.003521767073566605	-6.983172268899296	-6.983172268899372	-1.176351904339751	0.008142581445272964	-0.8984871845662544	-0.4855285499654771	1.89398841163282e-08	-1.274391607464519e-07	-1.548183481200474e-07	-1.242281424439335e-08	-2.833953910048867e-08	-4.485987957435622e-07	3.038289366843156e-08
1.03	-0.4246502443473175	-0.02154271772643836	0.4601018962894073	2.092185259367986	-0.2399125092932829	0.0773891402658007	-0.4363308653128614	1.856037835610219	1.856037835610223	0.1313177902621569	0.1745253444912633	0.4358907519301106	0.1409627948645842	-0.0161387750178435	-0.01496703024459767	0.06781953107793345	-0.167619697974426	-0.001602456360464429	-0.02030968983271587	6.84371913649911e-05	-0.2022513366520231	-0.2022513366520227	-0.03895071023856177	-3.17692716993129e-05	-0.0281239927168579	-0.01376619573207963	-0.3267536640416938	0.01351251428361263	-0.04372676411522262	-0.4473617105578559	-0.006141057331064808	0.01692305129030707	0.2940842533701896	-50.79750001608626	9.653017807513741	-11.20314551980943	27.23286338321189	-758.2755300638046	-47.72364629535	-0.03404860602935167	-0.1085131512189395	-0.4958493540074846	2.403451882372213	-6.312053491119687	-0.07024722090031518	-0.7889292242390024	-0.002688189696315478	-6.989675148751159	-6.989675148750485	-1.266865025263135	-0.005294495889309513	-0.898330668003901	-0.4639016654376185	3.326642196286298e-08	-1.945950335605572e-07	-2.374939663271496e-07	-3.335631042960505e-08	-4.396335383706087e-08	-6.791247516983595e-07	4.515996227366246e-08
1.04	-0.4248164135143229	-0.0217170682228589	0.4609003730872939	2.090192899151863	-0.2399323333524253	0.07714475437005901	-0.436330360190169	1.853665575323395	1.853665575323386	0.1308664366959796	0.1745250546929848	0.435564222336052	0.1408013543325818	-0.0170280226479174	-0.01989157835791055	0.0918871946488425	-0.2309209633996579	-0.002365864482006196	-0.02857270653312851	2.517039946807447e-05	-0.2722192219098991	-0.2722192219098945	-0.0513208002271157	-2.338379038513319e-05	-0.03720043054278719	-0.01853355591223963	-0.3276203183126867	0.0136500977937773	-0.04354841588759383	-0.4470304930934054	-0.006600741721735221	0.01695473900477787	0.2947775690829336	-50.96864909417386	9.645481535742549	-11.17482567522642	27.37527199935234	-758.7088140489861	-47.74204797545285	-0.03414245137790087	-0.06987235224952064	-0.4890993342270494	2.410003236433781	-6.345699574645085	-0.08753932191831525	-0.8995079963872917	-0.005378573126752814	-7.005446677668159	-7.005446677668193	-1.177107937699492	0.01211222522741401	-0.9207134463299979	-0.499029488531356	4.590767169987506e-08	-2.577011872515899e-07	-3.159088315933447e-07	-5.072501818241548e-08	-5.836929260906983e-08	-8.937917416503689e-07	5.909493618242555e-08
1.05	-0.4249894618281694	-0.02194022676472198	0.4619397811950876	2.08756579483031	-0.2399598752000393	0.07681755147208108	-0.4363303298084064	1.850593248769043	1.850593248769038	0.1302914754303123	0.1745248995536968	0.4351462172448075	0.1405918737627492	-0.01751212428904944	-0.0247190799147635	0.1159978336849511	-0.2945402093558102	-0.003144310831563159	-0.03686927101457256	-1.129759141740945e-05	-0.3422484109680212	-0.3422484109680173	-0.06366807690183336	-8.216457960057345e-06	-0.04643339684927179	-0.02337624436433113	-0.3283424389745584	0.01375391839617995	-0.04325291498456205	-0.4466357583959531	-0.006646897477837012	0.01701836516471667	0.2954059168618377	-50.98163931543412	9.584203835183178	-11.12402793116098	27.26942882171536	-758.9420708142637	-47.84241988541213	-0.03425030658042027	-0.02724095209389742	-0.4764318221771615	2.412090560892282	-6.376073579839715	-0.07321508744417944	-0.7949186151718449	-0.00161144543677524	-7.002018062208786	-7.002018062208822	-1.262990681297498	-0.00374282032733111	-0.9295133730072889	-0.4788437575529595	5.849625618346458e-08	-3.206807872200267e-07	-3.941905483301365e-07	-6.798232629671339e-08	-7.273717275718619e-08	-1.107963138914791e-06	7.300359463192403e-08
1.06	-0.4251652635348446	-0.02221103157330595	0.4632203949579807	2.084301290754435	-0.239995245070344	0.07640734534106249	-0.4363304302131749	1.846820557715646	1.846820557715652	0.1295931507681423	0.1745249037262066	0.4346348974604589	0.1403335752615939	-0.01757870121213559	-0.02942083170208732	0.1401283256687615	-0.3584009142615351	-0.003931469019902768	-0.04517335314197118	-9.869169973207997e-07	-0.4122921217191274	-0.4122921217191239	-0.07599347953414387	8.478571367739765e-06	-0.05586336916374102	-0.02829714217661768	-0.3290645596364656	0.01385773899855843	-0.04295741408148191	-0.4462410236985029	-0.006693053233939679	0.01708199132461523	0.2960342646407016	-50.9975581129794	9.51946273856516	-11.06813601078676	27.21913682637413	-759.1983601886724	-47.94927734224471	-0.03439301107814186	0.01363259135962627	-0.4639493803212137	2.413973825974163	-6.39399136455962	-0.08928168967483681	-0.9010115255781538	0.003977159934029728	-7.008351016264968	-7.008351016264988	-1.172733129218096	0.01241776460793608	-0.9601146479268992	-0.5146713605703335	7.022854418701736e-08	-3.8009878922975e-07	-4.690890987355877e-07	-8.423571603714748e-08	-8.559614429825536e-08	-1.304771942154542e-06	8.581313059701666e-08
1.07	-0.4253394597926484	-0.02252813677910822	0.4647423323870905	2.080397143698487	-0.2400385469472881	0.07591398317813551	-0.436330295161586	1.84234755808225	1.842347558082252	0.1287718125690611	0.1745250855422685	0.434028140120689	0.1400255972612724	-0.01717048374943004	-0.03397025095488208	0.16425507890311	-0.4224567512138528	-0.004730718748819854	-0.05349954629273001	2.285641580957174e-05	-0.4822910939562533	-0.4822910939562489	-0.08826473576474334	2.690502754298973e-05	-0.065534042509356	-0.03331627688332856	-0.3295680158785885	0.01393642863867786	-0.04254809238529479	-0.4457516493471082	-0.006332369370325787	0.01717456403565409	0.2965171186802462	-50.85345348482014	9.402219327728764	-10.99026783109358	26.94288149942259	-759.1688811489853	-48.1281211377339	-0.03454745810028893	0.06794064081650661	-0.4459647384232699	2.411394028973765	-6.41560489355992	-0.07544521447316449	-0.7984634749393387	0.0008167961755011	-6.993183569999607	-6.993183569999374	-1.25285431171299	-0.00342187106079811	-0.9774402552014161	-0.4980731389231861	8.191528450546178e-08	-4.393273445395418e-07	-5.438076934851166e-07	-1.004357058640782e-07	-9.8374854743205e-08	-1.500657203158938e-06	9.85642026001728e-08
1.08	-0.4255068690124142	-0.02288984148557118	0.4665054109399053	2.075851593266424	-0.240089881041515	0.07533735103069324	-0.4363300759013996	1.83717506607797	1.837175066077962	0.1278280553193508	0.1745254562314603	0.4333232967319963	0.1396669201912428	-0.01622129360310303	-0.0383407318342261	0.1883565504097986	-0.4866815894858466	-0.005537912476657338	-0.06182735004806953	1.585479747870325e-05	-0.5521905958959087	-0.552190595895903	-0.1004772896646338	4.62531963903444e-05	-0.07548057894787651	-0.03843695611810558	-0.3300714721206598	0.01401511827881593	-0.04213877068906937	-0.4452622749957166	-0.005971685506719517	0.01726713674672002	0.2969999727198433	-50.7126897228072	9.281545107808986	-10.90726542030392	26.72241870776093	-759.1683113931583	-48.3140314977988	-0.03473328066684916	0.1218271280838637	-0.4281617056310519	2.408917480442171	-6.427791628494828	-0.09087048945890253	-0.9013336464942301	-0.002191830293721273	-6.988456956770845	-6.988456956770836	-1.160992663076346	0.0126021071423215	-1.01528726650796	-0.5349802661835138	9.164621381169336e-08	-4.904587858211018e-07	-6.084517441021981e-07	-1.143093339897885e-07	-1.087119060818491e-07	-1.660629619365056e-06	1.089543155240941e-07
